<svg width="144" height="144" viewBox="0 0 144 144" fill="none" xmlns="http://www.w3.org/2000/svg">
<path opacity="0.1" d="M71.8297 128.237C102.982 128.237 128.237 102.899 128.237 71.6425C128.237 40.3865 102.982 15.0485 71.8297 15.0485C40.6771 15.0485 15.4229 40.3865 15.4229 71.6425C15.4229 102.899 40.6771 128.237 71.8297 128.237Z" fill="#2CFFEC"/>
<path opacity="0.1" fill-rule="evenodd" clip-rule="evenodd" d="M71.6425 67.1824C69.1913 67.1824 67.2447 69.1456 67.2447 71.5178C67.2447 73.8899 69.1913 75.8531 71.6425 75.8531C74.0935 75.8531 76.0402 73.89 76.0402 71.5178C76.0402 69.1456 74.0935 67.1824 71.6425 67.1824ZM61.9385 71.5178C61.9385 66.1707 66.3054 61.8762 71.6425 61.8762C76.9795 61.8762 81.3464 66.1707 81.3464 71.5178C81.3464 76.8648 76.9795 81.1593 71.6425 81.1593C66.3054 81.1593 61.9385 76.8648 61.9385 71.5178Z" fill="#2CFFEC"/>
<path opacity="0.4" fill-rule="evenodd" clip-rule="evenodd" d="M71.8297 19.2207C42.9982 19.2207 19.6575 42.5245 19.6575 71.2057H10.8138C10.8138 37.6148 38.1394 10.3771 71.8297 10.3771V19.2207Z" fill="#2CFFEC"/>
<path opacity="0.4" fill-rule="evenodd" clip-rule="evenodd" d="M71.8297 123.191C100.661 123.191 124.002 99.8871 124.002 71.2058H132.846C132.846 104.797 105.52 132.034 71.8297 132.034V123.191Z" fill="#2CFFEC"/>
<path fill-rule="evenodd" clip-rule="evenodd" d="M96.414 33.5912C93.9733 33.5912 91.9947 35.5698 91.9947 38.0106C91.9947 40.4514 93.9733 42.43 96.414 42.43C98.8548 42.43 100.833 40.4514 100.833 38.0106C100.833 35.5698 98.8548 33.5912 96.414 33.5912ZM90.226 38.0106C90.226 34.593 92.9965 31.8225 96.414 31.8225C99.8316 31.8225 102.602 34.593 102.602 38.0106C102.602 41.4282 99.8316 44.1987 96.414 44.1987C92.9965 44.1987 90.226 41.4282 90.226 38.0106Z" fill="#2CFFEC"/>
<path fill-rule="evenodd" clip-rule="evenodd" d="M94.6045 47.7553C91.2243 47.7553 88.438 50.5416 88.438 53.9218V68.5227C88.438 69.7305 89.4263 70.7582 90.6735 70.7582H102.092C103.329 70.7582 104.336 69.7382 104.39 68.505V53.9218C104.39 50.5416 101.604 47.7553 98.2235 47.7553H94.6045ZM86.6693 53.9218C86.6693 49.5648 90.2474 45.9866 94.6045 45.9866H98.2235C102.581 45.9866 106.159 49.5648 106.159 53.9218V68.5227C106.159 68.5336 106.158 68.5445 106.158 68.5554C106.079 70.6849 104.345 72.5269 102.092 72.5269H90.6735C88.4265 72.5269 86.6693 70.6843 86.6693 68.5227V53.9218Z" fill="#2CFFEC"/>
<path fill-rule="evenodd" clip-rule="evenodd" d="M46.8708 72.5269C44.4301 72.5269 42.4514 74.5055 42.4514 76.9463C42.4514 79.387 44.4301 81.3657 46.8708 81.3657C49.3116 81.3657 51.2902 79.387 51.2902 76.9463C51.2902 74.5055 49.3116 72.5269 46.8708 72.5269ZM40.6827 76.9463C40.6827 73.5287 43.4532 70.7582 46.8708 70.7582C50.2884 70.7582 53.0589 73.5287 53.0589 76.9463C53.0589 80.3639 50.2884 83.1344 46.8708 83.1344C43.4532 83.1344 40.6827 80.3639 40.6827 76.9463Z" fill="#2CFFEC"/>
<path fill-rule="evenodd" clip-rule="evenodd" d="M45.0613 86.6909C41.6811 86.6909 38.8948 89.4772 38.8948 92.8575V107.458C38.8948 108.666 39.8831 109.694 41.1303 109.694H52.5489C53.819 109.694 54.8469 108.643 54.8469 107.458V92.8575C54.8469 89.4773 52.0605 86.6909 48.6803 86.6909H45.0613ZM37.1261 92.8575C37.1261 88.5004 40.7042 84.9222 45.0613 84.9222H48.6803C53.0373 84.9222 56.6156 88.5004 56.6156 92.8575V107.458C56.6156 109.643 54.773 111.463 52.5489 111.463H41.1303C38.8833 111.463 37.1261 109.62 37.1261 107.458V92.8575Z" fill="#2CFFEC"/>
<path fill-rule="evenodd" clip-rule="evenodd" d="M0.884352 70.7582C1.37277 70.7582 1.7687 71.1541 1.7687 71.6425C1.7687 110.215 33.0704 141.516 71.6425 141.516C72.1309 141.516 72.5269 141.912 72.5269 142.401C72.5269 142.889 72.1309 143.285 71.6425 143.285C32.0936 143.285 0 111.191 0 71.6425C0 71.1541 0.395938 70.7582 0.884352 70.7582Z" fill="#2CFFEC"/>
<path fill-rule="evenodd" clip-rule="evenodd" d="M70.7582 0.884352C70.7582 0.395938 71.1541 0 71.6425 0C111.191 0 143.285 32.0936 143.285 71.6425C143.285 72.1309 142.889 72.5269 142.401 72.5269C141.912 72.5269 141.516 72.1309 141.516 71.6425C141.516 33.0704 110.215 1.7687 71.6425 1.7687C71.1541 1.7687 70.7582 1.37277 70.7582 0.884352Z" fill="#2CFFEC"/>
</svg>
