<svg width="150" height="150" viewBox="0 0 150 150" fill="none" xmlns="http://www.w3.org/2000/svg">
<path opacity="0.1" fill-rule="evenodd" clip-rule="evenodd" d="M27.0203 92.4801H100.714L114.59 115.445H13.2254L27.0203 92.4801ZM30.0228 97.7863L22.6028 110.138H105.184L97.7206 97.7863H30.0228Z" fill="#2CFFEC"/>
<path opacity="0.1" fill-rule="evenodd" clip-rule="evenodd" d="M105.198 92.4801H121.996L135.791 115.445H118.993L105.198 92.4801ZM114.576 97.7863L121.996 110.138H126.413L118.993 97.7863H114.576Z" fill="#2CFFEC"/>
<path fill-rule="evenodd" clip-rule="evenodd" d="M2.86559 119.905C2.86559 119.416 3.26152 119.02 3.74994 119.02H145.266C145.755 119.02 146.151 119.416 146.151 119.905V126.956C146.151 127.444 145.755 127.84 145.266 127.84H3.74994C3.26152 127.84 2.86559 127.444 2.86559 126.956V119.905ZM4.63429 120.789V126.071H144.382V120.789H4.63429Z" fill="#2CFFEC"/>
<path fill-rule="evenodd" clip-rule="evenodd" d="M20.635 87.6531C20.7909 87.3722 21.0869 87.1979 21.4083 87.1979H127.546C127.867 87.1979 128.163 87.3722 128.319 87.6531L145.977 119.476C146.214 119.903 146.06 120.441 145.633 120.678C145.206 120.915 144.668 120.761 144.431 120.334L127.025 88.9666H21.9289L4.52322 120.334C4.28623 120.761 3.74792 120.915 3.32085 120.678C2.89378 120.441 2.73968 119.903 2.97666 119.476L20.635 87.6531Z" fill="#2CFFEC"/>
<path fill-rule="evenodd" clip-rule="evenodd" d="M20.524 24.375C20.524 23.8865 20.9199 23.4906 21.4083 23.4906H127.546C128.034 23.4906 128.43 23.8865 128.43 24.375V88.0822C128.43 88.5706 128.034 88.9666 127.546 88.9666C127.057 88.9666 126.661 88.5706 126.661 88.0822V25.2593H22.2927V88.0822C22.2927 88.5706 21.8967 88.9666 21.4083 88.9666C20.9199 88.9666 20.524 88.5706 20.524 88.0822V24.375Z" fill="#2CFFEC"/>
<path fill-rule="evenodd" clip-rule="evenodd" d="M38.2447 45.5899C38.2447 45.1015 38.6406 44.7056 39.129 44.7056H60.344C60.8324 44.7056 61.2284 45.1015 61.2284 45.5899V66.8049C61.2284 67.2933 60.8324 67.6892 60.344 67.6892H39.129C38.6406 67.6892 38.2447 67.2933 38.2447 66.8049V45.5899ZM40.0134 46.4743V65.9205H59.4597V46.4743H40.0134Z" fill="#2CFFEC"/>
<path fill-rule="evenodd" clip-rule="evenodd" d="M70.0672 45.5899C70.0672 45.1015 70.4631 44.7056 70.9515 44.7056H106.331C106.819 44.7056 107.215 45.1015 107.215 45.5899C107.215 46.0783 106.819 46.4743 106.331 46.4743H70.9515C70.4631 46.4743 70.0672 46.0783 70.0672 45.5899Z" fill="#2CFFEC"/>
<path fill-rule="evenodd" clip-rule="evenodd" d="M70.0672 56.1975C70.0672 55.709 70.4631 55.3131 70.9515 55.3131H106.331C106.819 55.3131 107.215 55.709 107.215 56.1975C107.215 56.6859 106.819 57.0818 106.331 57.0818H70.9515C70.4631 57.0818 70.0672 56.6859 70.0672 56.1975Z" fill="#2CFFEC"/>
<path fill-rule="evenodd" clip-rule="evenodd" d="M70.0672 66.8049C70.0672 66.3165 70.4631 65.9205 70.9515 65.9205H106.331C106.819 65.9205 107.215 66.3165 107.215 66.8049C107.215 67.2933 106.819 67.6892 106.331 67.6892H70.9515C70.4631 67.6892 70.0672 67.2933 70.0672 66.8049Z" fill="#2CFFEC"/>
<path opacity="0.4" fill-rule="evenodd" clip-rule="evenodd" d="M127.546 32.3534H21.4083V23.5098H127.546V32.3534Z" fill="#2CFFEC"/>
</svg>
