<svg width="150" height="120" viewBox="0 0 150 120" fill="none" xmlns="http://www.w3.org/2000/svg">
<path opacity="0.1" fill-rule="evenodd" clip-rule="evenodd" d="M46.3103 75.6636H59.2521V93.4139H53.6948V81.2025H51.8676V93.4139H46.3103V75.6636Z" fill="#2CFFEC"/>
<path opacity="0.1" fill-rule="evenodd" clip-rule="evenodd" d="M90.748 12.874H103.69V30.6896H98.1326V18.413H96.3053V30.6896H90.748V12.874Z" fill="#2CFFEC"/>
<path opacity="0.1" fill-rule="evenodd" clip-rule="evenodd" d="M1.80713 12.874H14.8142V30.6896H9.25698V18.413H7.3644V30.6896H1.80713V12.874Z" fill="#2CFFEC"/>
<path fill-rule="evenodd" clip-rule="evenodd" d="M75.0326 64.6358C71.4658 64.6358 68.5743 67.5178 68.5743 71.0729C68.5743 74.628 71.4658 77.5099 75.0326 77.5099C78.5995 77.5099 81.4909 74.628 81.4909 71.0729C81.4909 67.5178 78.5994 64.6358 75.0326 64.6358ZM66.7219 71.0729C66.7219 66.4982 70.4427 62.7896 75.0326 62.7896C79.6225 62.7896 83.3433 66.4982 83.3433 71.0729C83.3433 75.6477 79.6225 79.3562 75.0326 79.3562C70.4428 79.3562 66.7219 75.6477 66.7219 71.0729Z" fill="#2CFFEC"/>
<path fill-rule="evenodd" clip-rule="evenodd" d="M69.478 84.8926C66.9181 84.8926 64.8495 86.9544 64.8495 89.5058H62.9971C62.9971 85.9347 65.895 83.0463 69.478 83.0463H80.5874V84.8926H69.478Z" fill="#2CFFEC"/>
<path fill-rule="evenodd" clip-rule="evenodd" d="M44.4377 92.2953H105.758V105.214H85.0312V103.368H103.906V94.1416H46.2901V103.368H65.1649V105.214H44.4377V92.2953Z" fill="#2CFFEC"/>
<path fill-rule="evenodd" clip-rule="evenodd" d="M86.1422 120H63.9233V118.154H86.1422V120Z" fill="#2CFFEC"/>
<path fill-rule="evenodd" clip-rule="evenodd" d="M75.9588 104.291V119.077H74.1064V104.291H75.9588Z" fill="#2CFFEC"/>
<path fill-rule="evenodd" clip-rule="evenodd" d="M119.47 1.8463C115.904 1.8463 113.012 4.72828 113.012 8.28336C113.012 11.8384 115.904 14.7203 119.47 14.7203C123.037 14.7203 125.929 11.8384 125.929 8.28336C125.929 4.72828 123.037 1.8463 119.47 1.8463ZM111.16 8.28336C111.16 3.70861 114.881 0 119.47 0C124.06 0 127.781 3.70861 127.781 8.28336C127.781 12.8581 124.06 16.5666 119.47 16.5666C114.881 16.5666 111.16 12.8581 111.16 8.28336Z" fill="#2CFFEC"/>
<path fill-rule="evenodd" clip-rule="evenodd" d="M107.435 26.7164C107.435 23.1452 110.333 20.2568 113.916 20.2568H125.025V22.1031H113.916C111.356 22.1031 109.287 24.1649 109.287 26.7164H107.435Z" fill="#2CFFEC"/>
<path fill-rule="evenodd" clip-rule="evenodd" d="M88.8755 29.5059H150V42.425H126.855V40.5787H148.148V31.3522H90.7279V40.5787H112.086V42.425H88.8755V29.5059Z" fill="#2CFFEC"/>
<path fill-rule="evenodd" clip-rule="evenodd" d="M130.58 57.2106H108.361V55.3643H130.58V57.2106Z" fill="#2CFFEC"/>
<path fill-rule="evenodd" clip-rule="evenodd" d="M120.397 41.502V56.2874H118.544V41.502H120.397Z" fill="#2CFFEC"/>
<path fill-rule="evenodd" clip-rule="evenodd" d="M30.5296 1.8463C26.9628 1.8463 24.0713 4.72828 24.0713 8.28336C24.0713 11.8384 26.9627 14.7203 30.5296 14.7203C34.0964 14.7203 36.9879 11.8384 36.9879 8.28336C36.9879 4.72828 34.0964 1.8463 30.5296 1.8463ZM22.2189 8.28336C22.2189 3.70861 25.9397 0 30.5296 0C35.1195 0 38.8403 3.70861 38.8403 8.28336C38.8403 12.8581 35.1194 16.5666 30.5296 16.5666C25.9397 16.5666 22.2189 12.8581 22.2189 8.28336Z" fill="#2CFFEC"/>
<path fill-rule="evenodd" clip-rule="evenodd" d="M18.494 26.7164C18.494 23.1452 21.392 20.2568 24.9749 20.2568H36.0844V22.1031H24.9749C22.415 22.1031 20.3464 24.1649 20.3464 26.7164H18.494Z" fill="#2CFFEC"/>
<path fill-rule="evenodd" clip-rule="evenodd" d="M0 29.5059H61.1245V42.425H37.9794V40.5787H59.2721V31.3522H1.8524V40.5787H23.1451V42.425H0V29.5059Z" fill="#2CFFEC"/>
<path fill-rule="evenodd" clip-rule="evenodd" d="M41.639 57.2106H19.4202V55.3643H41.639V57.2106Z" fill="#2CFFEC"/>
<path fill-rule="evenodd" clip-rule="evenodd" d="M31.4558 41.502V56.2874H29.6034V41.502H31.4558Z" fill="#2CFFEC"/>
<path opacity="0.4" fill-rule="evenodd" clip-rule="evenodd" d="M97.2516 90.409H82.4172V81.1774H97.2516V90.409Z" fill="#2CFFEC"/>
<path opacity="0.4" fill-rule="evenodd" clip-rule="evenodd" d="M141.689 27.6845H126.855V18.4529H141.689V27.6845Z" fill="#2CFFEC"/>
<path opacity="0.4" fill-rule="evenodd" clip-rule="evenodd" d="M52.7484 27.6845H37.9794V18.4529H52.7484V27.6845Z" fill="#2CFFEC"/>
</svg>
